# xmcd
#
# Track frame offsets: 
#        150
#        4122
#        34825
#        39585
#        68655
#        70587
#        80415
#        92327
#        96600
#        120742
#        122322
#        144042
#        166182
#        167782
#        190717
#        192165
#        203160
#        206685
#        222092
#        223647
#        238782
#
# Disc length: 3428 seconds
#
# Revision: 8
# Processed by: cddbd v1.5.2PL0 Copyright (c) Steve Scherf et al.
# Submitted via: ExactAudioCopy v1.0b3
#
DISCID=1c0d6215
DTITLE=TISM - Att: Shock Records Faulty Pressing Do Not Manufacture
DYEAR=1998
DGENRE=Alt.Rock
TTITLE0=Conversation about Porn
TTITLE1=Describe the Worst Head Job You've Ever Had? Fantastic!
TTITLE2=Conversation About This Kid
TTITLE3=The Australian Guitar Hero Makes His Last Stand
TTITLE4=Conversation About Springvale
TTITLE5=Kate, Fischer of Men
TTITLE6=My Brilliant Huntington's Chorea
TTITLE7=Conversation About Private Schools
TTITLE8=Apology of the Thai Drug Runner
TTITLE9=Conversation About Reviews
TTITLE10=Julias Seizure (Act III, Scene II, Verse 73-118)
TTITLE11=Neighbours - Everybody Loves Good Neighbours
TTITLE12=Conversation About Robin Prower
TTITLE13=Opposite Day
TTITLE14=Conversation About Super
TTITLE15=Rebel Without a Paunch
TTITLE16=Conversation About Bad Music
TTITLE17=I'd Be Happier If I Was More Depressed
TTITLE18=Conversation About Cross-Fades
TTITLE19=Professor Derrida Deconstructs
TTITLE20=Ya Gotta Love That
EXTD=Disc 2
EXTT0=
EXTT1=
EXTT2=
EXTT3=
EXTT4=
EXTT5=
EXTT6=
EXTT7=
EXTT8=
EXTT9=
EXTT10=
EXTT11=
EXTT12=
EXTT13=
EXTT14=
EXTT15=
EXTT16=
EXTT17=
EXTT18=
EXTT19=
EXTT20=
PLAYORDER=
